HIERARCHY
ROOT Hips
{
	OFFSET -0.001795 -0.223333 0.028219
	CHANNELS 6 Xposition Yposition Zposition Zrotation Yrotation Xrotation 
	JOINT LeftUpLeg
	{
		OFFSET 0.069520 -0.091406 -0.006815
		CHANNELS 3 Zrotation Yrotation Xrotation
		JOINT LeftLeg
		{
			OFFSET 0.034277 -0.375199 -0.004496
			CHANNELS 3 Zrotation Yrotation Xrotation
			JOINT LeftFoot
			{
				OFFSET -0.013596 -0.397961 -0.043693
				CHANNELS 3 Zrotation Yrotation Xrotation
				JOINT LeftToe
				{
					OFFSET 0.026358 -0.055791 0.119288
					CHANNELS 3 Zrotation Yrotation Xrotation
					End Site
					{
						OFFSET 0.000000 0.000000 0.000000
					}
				}
			}
		}
	}
	JOINT RightUpLeg
	{
		OFFSET -0.067670 -0.090522 -0.004320
		CHANNELS 3 Zrotation Yrotation Xrotation
		JOINT RightLeg
		{
			OFFSET -0.038290 -0.382569 -0.008850
			CHANNELS 3 Zrotation Yrotation Xrotation
			JOINT RightFoot
			{
				OFFSET 0.015774 -0.398415 -0.042312
				CHANNELS 3 Zrotation Yrotation Xrotation
				JOINT RightToe
				{
					OFFSET -0.025372 -0.048144 0.123348
					CHANNELS 3 Zrotation Yrotation Xrotation
					End Site
					{
						OFFSET 0.000000 0.000000 0.000000
					}
				}
			}
		}
	}
	JOINT Spine
	{
		OFFSET -0.002533 0.108963 -0.026696
		CHANNELS 3 Zrotation Yrotation Xrotation
		JOINT Spine1
		{
			OFFSET 0.005487 0.135180 0.001092
			CHANNELS 3 Zrotation Yrotation Xrotation
			JOINT Spine2
			{
				OFFSET 0.001457 0.052922 0.025425
				CHANNELS 3 Zrotation Yrotation Xrotation
				JOINT Neck
				{
					OFFSET -0.002778 0.213870 -0.042857
					CHANNELS 3 Zrotation Yrotation Xrotation
					JOINT Head
					{
						OFFSET 0.005152 0.064970 0.051349
						CHANNELS 3 Zrotation Yrotation Xrotation
						End Site
						{
							OFFSET 0.000000 0.000000 0.000000
						}
					}
				}
				JOINT LeftShoulder
				{
					OFFSET 0.078845 0.121749 -0.034090
					CHANNELS 3 Zrotation Yrotation Xrotation
					JOINT LeftArm
					{
						OFFSET 0.090977 0.030469 -0.008868
						CHANNELS 3 Zrotation Yrotation Xrotation
						JOINT LeftForeArm
						{
							OFFSET 0.259612 -0.012772 -0.027456
							CHANNELS 3 Zrotation Yrotation Xrotation
							JOINT LeftHand
							{
								OFFSET 0.249234 0.008986 -0.001171
								CHANNELS 3 Zrotation Yrotation Xrotation
								End Site
								{
									OFFSET 0.000000 0.000000 0.000000
								}
							}
						}
					}
				}
				JOINT RightShoulder
				{
					OFFSET -0.081759 0.118833 -0.038615
					CHANNELS 3 Zrotation Yrotation Xrotation
					JOINT RightArm
					{
						OFFSET -0.096012 0.032551 -0.009143
						CHANNELS 3 Zrotation Yrotation Xrotation
						JOINT RightForeArm
						{
							OFFSET -0.253742 -0.013329 -0.021401
							CHANNELS 3 Zrotation Yrotation Xrotation
							JOINT RightHand
							{
								OFFSET -0.255298 0.007772 -0.005559
								CHANNELS 3 Zrotation Yrotation Xrotation
								End Site
								{
									OFFSET 0.000000 0.000000 0.000000
								}
							}
						}
					}
				}
			}
		}
	}
}
MOTION
Frames: 15
Frame Time: 0.050000
0.000000 0.937698 0.000000 -0.012246 -3.218587 6.125557 5.527484 -0.280999 -3.782013 -0.554813 0.121649 -2.054306 2.115925 6.330556 6.326969 0.000000 0.000000 0.000000 -2.780354 0.508244 -5.105672 -1.330858 0.092671 -0.712502 -1.283557 -5.602077 5.410233 0.000000 0.000000 0.000000 5.585132 0.203237 -3.951436 -3.039824 1.392237 -3.110556 -4.668983 5.228867 5.706262 6.152048 -2.398743 -14.433505 0.000000 0.000000 0.000000 -19.002891 -4.727686 -0.399908 -52.612581 -12.428137 -0.701909 -8.411039 -19.384961 2.013870 0.000000 0.000000 0.000000 16.026296 -4.056474 -2.662714 62.829618 8.019300 -1.740730 10.410693 24.133620 3.116632 0.000000 0.000000 0.000000 
0.000372 0.937073 0.001059 -0.286184 -3.332090 6.963451 5.668115 -0.271392 -3.322902 -0.255766 0.152308 -3.880374 2.083844 6.230957 6.211913 0.000000 0.000000 0.000000 -2.467234 0.559537 -5.683835 -1.624011 0.088841 -1.259833 -1.165568 -5.711999 6.340288 0.000000 0.000000 0.000000 6.735696 0.295456 -4.925476 -3.471727 1.581348 -2.941622 -5.752315 5.745954 5.289341 5.900298 -2.015499 -15.389832 0.000000 0.000000 0.000000 -20.067920 -4.671903 -0.750161 -51.402785 -12.977045 -0.337648 -8.418670 -18.186527 1.866655 0.000000 0.000000 0.000000 15.992265 -5.187544 -3.130642 64.236514 7.159838 -2.110207 10.240946 23.880158 3.080150 0.000000 0.000000 0.000000 
0.000601 0.937102 0.001812 0.050438 -3.192845 6.927937 5.167589 -0.295344 -3.752267 -0.076825 0.099286 -2.745729 2.067556 6.016485 5.475613 0.000000 0.000000 0.000000 -2.437747 0.580971 -5.966390 -2.028475 0.138805 -1.008573 -1.933892 -7.383991 6.454240 0.000000 0.000000 0.000000 6.659116 0.293900 -4.913589 -3.379756 1.522897 -4.019791 -6.096991 5.595652 5.814447 5.425017 -1.930857 -14.091911 0.000000 0.000000 0.000000 -20.003118 -4.889224 -0.585709 -51.178498 -12.529113 -0.590549 -8.296011 -16.761644 1.710090 0.000000 0.000000 0.000000 17.097476 -4.730466 -2.979821 62.930048 6.471233 -2.609638 9.839846 24.500077 3.097063 0.000000 0.000000 0.000000 
0.000808 0.936955 0.002584 0.095940 -3.264548 7.553649 5.497665 -0.318898 -4.208045 -0.560650 0.155724 -3.199961 1.930026 5.835724 5.788887 0.000000 0.000000 0.000000 -2.545273 0.618853 -6.391890 -1.910105 0.096412 -1.560541 -2.267200 -8.224190 6.859227 0.000000 0.000000 0.000000 6.787859 0.341390 -5.485014 -3.704967 1.668235 -3.624455 -6.003893 5.139631 4.644228 4.892615 -1.818676 -12.720042 0.000000 0.000000 0.000000 -20.191412 -3.991254 -1.009168 -51.044716 -13.100767 -0.246670 -7.815245 -14.990929 1.471440 0.000000 0.000000 0.000000 16.079882 -5.435639 -3.384797 63.209610 6.053105 -2.664471 10.668967 24.404920 3.207817 0.000000 0.000000 0.000000 
0.000908 0.937774 0.003332 0.208143 -3.134585 7.522306 5.106930 -0.323480 -4.166290 -0.211480 0.132944 -3.406534 1.918772 5.956637 6.285940 0.000000 0.000000 0.000000 -2.603717 0.600363 -6.172378 -2.161318 0.089562 -2.048116 -2.356414 -8.492798 7.164001 0.000000 0.000000 0.000000 6.603139 0.375612 -5.846177 -3.518179 1.590959 -3.496807 -6.057889 4.919522 4.626371 4.840688 -1.862950 -12.269358 0.000000 0.000000 0.000000 -20.148153 -3.893140 -1.018706 -50.691368 -12.694779 -0.427769 -7.861158 -14.248978 1.407073 0.000000 0.000000 0.000000 15.989149 -5.837276 -3.611182 62.821386 5.537896 -2.933722 10.592009 24.726441 3.234756 0.000000 0.000000 0.000000 
0.000954 0.938420 0.004000 0.313353 -3.014275 7.936913 5.151821 -0.328784 -4.143042 -0.556592 0.177814 -3.950940 2.000066 6.230465 6.731901 0.000000 0.000000 0.000000 -2.613809 0.619207 -6.382016 -2.485930 0.074489 -2.721035 -2.270008 -8.521828 7.881289 0.000000 0.000000 0.000000 6.339646 0.414612 -6.385006 -3.311162 1.500159 -3.515366 -6.045129 4.784738 4.261062 4.869628 -1.970149 -11.666625 0.000000 0.000000 0.000000 -19.980913 -3.057443 -1.445342 -50.629256 -12.146496 -0.628763 -7.471789 -13.566245 1.292800 0.000000 0.000000 0.000000 15.475610 -5.924538 -3.622174 62.863425 5.158319 -3.072950 10.288177 24.279598 3.092938 0.000000 0.000000 0.000000 
0.000936 0.938797 0.004398 0.420575 -2.955020 8.082824 4.995957 -0.337880 -4.238462 -0.486715 0.175949 -4.067304 1.961927 6.233096 6.993592 0.000000 0.000000 0.000000 -2.607222 0.611275 -6.272045 -2.667180 0.061014 -3.155042 -2.040127 -8.037819 7.858708 0.000000 0.000000 0.000000 6.175313 0.430905 -6.627192 -3.347029 1.517449 -3.406853 -6.016694 4.598980 4.079361 5.257509 -2.211528 -11.820542 0.000000 0.000000 0.000000 -19.767240 -2.492532 -1.683286 -50.606354 -11.389677 -0.945248 -6.942350 -13.378444 1.216361 0.000000 0.000000 0.000000 15.407238 -6.347424 -3.864836 62.471434 4.631846 -3.320455 10.135833 23.936260 2.999101 0.000000 0.000000 0.000000 
0.000928 0.938816 0.004553 0.390113 -2.920765 8.082228 4.978965 -0.341324 -4.300927 -0.429181 0.168680 -3.976462 1.865651 6.048959 6.947648 0.000000 0.000000 0.000000 -2.580076 0.598277 -6.106888 -2.751150 0.054623 -3.353272 -2.041871 -8.060361 7.932928 0.000000 0.000000 0.000000 6.139389 0.413723 -6.466381 -3.365539 1.522628 -3.579587 -6.048640 4.705665 3.942538 5.456009 -2.364449 -11.582908 0.000000 0.000000 0.000000 -19.514285 -1.921725 -1.993308 -50.614087 -10.947202 -1.117744 -6.381643 -13.175189 1.130758 0.000000 0.000000 0.000000 15.386677 -6.753491 -4.048113 62.124582 4.307104 -3.455978 9.668460 22.805515 2.751315 0.000000 0.000000 0.000000 
0.000908 0.938483 0.004616 0.412221 -3.005033 8.035844 4.837716 -0.341914 -4.302756 -0.342896 0.154981 -3.757602 1.975824 6.099333 6.397335 0.000000 0.000000 0.000000 -2.630285 0.592459 -6.034934 -2.728492 0.049122 -3.411538 -1.975738 -7.840387 7.642010 0.000000 0.000000 0.000000 6.071949 0.403783 -6.363056 -3.426928 1.545587 -3.764020 -5.863170 4.784995 4.193877 5.495881 -2.381687 -11.679190 0.000000 0.000000 0.000000 -19.308762 -1.522022 -2.159380 -50.565296 -10.899503 -1.171536 -5.871008 -12.763078 1.041676 0.000000 0.000000 0.000000 15.318090 -6.943248 -4.136040 61.672609 4.129318 -3.557706 9.245164 21.930762 2.552914 0.000000 0.000000 0.000000 
0.000920 0.938136 0.004683 0.448355 -3.137772 7.905214 4.794284 -0.334635 -4.196760 -0.289487 0.143656 -3.537871 1.941829 5.997037 6.280001 0.000000 0.000000 0.000000 -2.790881 0.583248 -5.925394 -2.611517 0.035349 -3.502952 -1.910758 -7.751900 7.750068 0.000000 0.000000 0.000000 6.023927 0.390519 -6.204839 -3.503015 1.576690 -3.830555 -5.730348 4.863495 4.274801 5.384329 -2.300778 -11.756047 0.000000 0.000000 0.000000 -19.279687 -1.198165 -2.314750 -50.728665 -11.071866 -1.118518 -5.455336 -12.221096 0.955666 0.000000 0.000000 0.000000 15.247435 -7.210553 -4.267991 61.465583 4.066899 -3.590008 9.039896 21.017136 2.391915 0.000000 0.000000 0.000000 
0.000987 0.937904 0.004786 0.500978 -3.196165 7.765759 4.777939 -0.325873 -4.054884 -0.201532 0.135356 -3.502959 1.824596 5.764854 6.235939 0.000000 0.000000 0.000000 -2.926181 0.572510 -5.795211 -2.470533 0.026172 -3.498132 -1.990122 -7.931474 7.790581 0.000000 0.000000 0.000000 6.042486 0.371987 -5.981404 -3.526130 1.586018 -3.867390 -5.770356 4.758353 4.404471 5.408740 -2.310600 -11.882337 0.000000 0.000000 0.000000 -19.438798 -1.084865 -2.360635 -50.628740 -11.301201 -1.036373 -5.213063 -11.814059 0.902414 0.000000 0.000000 0.000000 15.052961 -7.253541 -4.286919 61.449476 3.968104 -3.653726 9.016611 20.531241 2.318241 0.000000 0.000000 0.000000 
0.001086 0.937868 0.004904 0.605811 -2.951016 7.577526 4.720228 -0.315497 -3.833925 -0.205233 0.133710 -3.444225 1.664640 5.477272 6.202747 0.000000 0.000000 0.000000 -3.087837 0.555703 -5.602569 -2.477499 0.047722 -3.165941 -2.109752 -8.126113 7.702459 0.000000 0.000000 0.000000 5.959405 0.360859 -5.863481 -3.478340 1.569194 -3.815856 -5.803204 4.553689 4.530602 5.413071 -2.258700 -12.283018 0.000000 0.000000 0.000000 -19.558620 -1.280286 -2.256480 -50.569981 -11.549635 -0.940997 -4.867055 -11.514535 0.847403 0.000000 0.000000 0.000000 15.007915 -7.364506 -4.345826 61.461161 3.772856 -3.767936 9.016719 20.415897 2.302464 0.000000 0.000000 0.000000 
0.001185 0.937829 0.005026 0.569921 -3.001522 7.417000 4.803366 -0.311388 -3.816615 -0.146230 0.117311 -3.100928 1.624365 5.358507 6.059327 0.000000 0.000000 0.000000 -3.127657 0.560773 -5.685437 -2.327937 0.077232 -2.490581 -2.282286 -8.385465 7.369422 0.000000 0.000000 0.000000 5.960289 0.347268 -5.686127 -3.390923 1.531308 -3.836961 -5.827444 4.562146 4.547231 5.393648 -2.242862 -12.313795 0.000000 0.000000 0.000000 -19.522283 -1.512365 -2.124810 -50.605066 -11.757143 -0.857904 -5.078976 -11.316145 0.853386 0.000000 0.000000 0.000000 14.918001 -7.561258 -4.436364 61.534032 3.482509 -3.920282 9.237600 20.637953 2.368937 0.000000 0.000000 0.000000 
0.001224 0.937971 0.005146 0.513148 -2.987492 7.185477 4.853020 -0.305289 -3.760070 -0.039419 0.098025 -2.803783 1.649251 5.333735 5.800993 0.000000 0.000000 0.000000 -3.136739 0.554481 -5.624935 -2.236369 0.096796 -2.042094 -2.389434 -8.539933 7.153044 0.000000 0.000000 0.000000 5.951261 0.339637 -5.561055 -3.315128 1.499382 -3.860765 -5.760928 4.436696 4.782873 5.326912 -2.147133 -12.768829 0.000000 0.000000 0.000000 -19.499677 -1.568536 -2.047510 -50.571223 -11.966587 -0.802035 -5.608791 -11.345562 0.908942 0.000000 0.000000 0.000000 14.921376 -7.696909 -4.524319 61.451473 3.146608 -4.122406 9.487626 21.110613 2.473144 0.000000 0.000000 0.000000 
0.001188 0.938022 0.005302 0.446378 -2.901199 7.033806 4.960086 -0.297414 -3.646517 -0.092489 0.097767 -2.657145 1.633850 5.287159 5.715719 0.000000 0.000000 0.000000 -3.066580 0.551913 -5.611351 -2.143307 0.118051 -1.556820 -2.524584 -8.737246 6.893634 0.000000 0.000000 0.000000 5.884313 0.328202 -5.428719 -3.218797 1.457827 -3.951557 -5.730804 4.365344 4.952861 5.295522 -2.123050 -12.837356 0.000000 0.000000 0.000000 -19.560384 -1.805336 -1.915367 -50.379289 -12.156930 -0.736726 -6.211006 -11.740157 1.001423 0.000000 0.000000 0.000000 14.963141 -7.677650 -4.522571 61.470480 2.903225 -4.272071 9.839735 21.885805 2.644348 0.000000 0.000000 0.000000 
